<svg width="95" height="19" viewBox="0 0 95 19" fill="none" xmlns="http://www.w3.org/2000/svg">
<path d="M5.84717 0.280762C7.46663 0.280762 8.81348 0.480143 9.8877 0.878906C10.9619 1.26953 11.7676 1.85547 12.3047 2.63672C12.8499 3.41797 13.1226 4.39046 13.1226 5.5542C13.1226 6.27848 13.0005 6.93766 12.7563 7.53174C12.5122 8.12581 12.1623 8.65885 11.7065 9.13086C11.259 9.59473 10.7218 10.0016 10.0952 10.3516L15.2954 18.1274H9.82666L6.04248 11.6333H4.82178V18.1274H0V0.280762H5.84717ZM5.77393 3.93066H4.82178V8.00781H5.7251C6.46566 8.00781 7.07194 7.84505 7.54395 7.51953C8.01595 7.19401 8.25195 6.61214 8.25195 5.77393C8.25195 5.19613 8.05664 4.74447 7.66602 4.41895C7.27539 4.09342 6.64469 3.93066 5.77393 3.93066ZM34.8682 9.17969C34.8682 10.555 34.7013 11.8083 34.3677 12.9395C34.0422 14.0625 33.5295 15.0309 32.8296 15.8447C32.1297 16.6585 31.2305 17.2852 30.1318 17.7246C29.0332 18.1559 27.7189 18.3716 26.189 18.3716C24.6916 18.3716 23.3936 18.1559 22.2949 17.7246C21.2044 17.2852 20.3052 16.6626 19.5972 15.8569C18.8892 15.0431 18.3643 14.0706 18.0225 12.9395C17.6807 11.8083 17.5098 10.5469 17.5098 9.15527C17.5098 7.2998 17.8149 5.68848 18.4253 4.32129C19.0438 2.94596 19.9959 1.88395 21.2817 1.13525C22.5675 0.378418 24.2114 0 26.2134 0C28.2479 0 29.8999 0.378418 31.1694 1.13525C32.4471 1.89209 33.383 2.95817 33.9771 4.3335C34.5711 5.70882 34.8682 7.32422 34.8682 9.17969ZM22.5879 9.17969C22.5879 10.2539 22.71 11.1776 22.9541 11.9507C23.1982 12.7238 23.5848 13.3179 24.1138 13.7329C24.6427 14.1479 25.3345 14.3555 26.189 14.3555C27.076 14.3555 27.7799 14.1479 28.3008 13.7329C28.8298 13.3179 29.2082 12.7238 29.436 11.9507C29.672 11.1776 29.79 10.2539 29.79 9.17969C29.79 7.56836 29.5215 6.29476 28.9844 5.35889C28.4473 4.42301 27.5236 3.95508 26.2134 3.95508C25.3426 3.95508 24.6387 4.16667 24.1016 4.58984C23.5726 5.01302 23.186 5.61523 22.9419 6.39648C22.7059 7.17773 22.5879 8.10547 22.5879 9.17969ZM54.5142 0.280762V11.0229C54.5142 12.5203 54.2293 13.8224 53.6597 14.9292C53.09 16.0278 52.2355 16.8783 51.0962 17.4805C49.9569 18.0745 48.5286 18.3716 46.8115 18.3716C44.3538 18.3716 42.478 17.7409 41.1841 16.4795C39.8901 15.2181 39.2432 13.4359 39.2432 11.1328V0.280762H44.0894V10.7544C44.0894 12.0158 44.3254 12.9313 44.7974 13.501C45.2694 14.0706 45.9652 14.3555 46.8848 14.3555C47.5439 14.3555 48.0811 14.2334 48.4961 13.9893C48.9111 13.737 49.2122 13.3423 49.3994 12.8052C49.5947 12.2681 49.6924 11.5763 49.6924 10.73V0.280762H54.5142ZM76.5039 18.1274H70.1807L63.6621 5.5542H63.5522C63.5929 5.93669 63.6296 6.39648 63.6621 6.93359C63.6947 7.4707 63.7231 8.02002 63.7476 8.58154C63.772 9.13493 63.7842 9.63542 63.7842 10.083V18.1274H59.5117V0.280762H65.8105L72.3047 12.6831H72.3779C72.3535 12.2925 72.3291 11.8408 72.3047 11.3281C72.2803 10.8073 72.2559 10.2824 72.2314 9.75342C72.2152 9.22445 72.207 8.75651 72.207 8.34961V0.280762H76.5039V18.1274ZM94.3311 18.1274H80.4272V15.1489L88.1543 4.1748H80.6104V0.280762H94.1357V3.24707L86.4087 14.2334H94.3311V18.1274Z" fill="#013BEA"/>
</svg>
